<svg width="30" height="30" viewBox="0 0 40 40" fill="none" xmlns="http://www.w3.org/2000/svg">
<path fill-rule="evenodd" clip-rule="evenodd" d="M19.9236 39.9998L19.9415 39.9999H19.9353L19.9236 39.9998ZM20.0647 39.9999H20.0585L20.0764 39.9998L20.0647 39.9999ZM19.8625 39.9995L19.8818 39.9996H19.8707L19.8625 39.9995V39.9995ZM20.1293 39.9996H20.1182L20.1375 39.9995L20.1293 39.9996ZM19.8036 39.9991L19.8165 39.9991L19.8062 39.9991H19.8036ZM20.1938 39.9991L20.1835 39.9991L20.1964 39.9991H20.1938ZM20.2584 39.9984L20.2538 39.9984L20.2712 39.9982L20.2584 39.9984ZM19.7287 39.9982L19.7462 39.9984L19.7416 39.9984L19.7287 39.9982V39.9982ZM20.3228 39.9974L20.3123 39.9976L20.3338 39.9973L20.3228 39.9974ZM19.6662 39.9973L19.6877 39.9976L19.6772 39.9974L19.6662 39.9973V39.9973ZM20.3872 39.9963L20.373 39.9966L20.3928 39.9962L20.3872 39.9963ZM19.6072 39.9962L19.627 39.9966L19.6128 39.9963L19.6072 39.9962ZM19.534 39.9947L19.5516 39.9951L19.5484 39.995L19.534 39.9947ZM20.4516 39.995L20.4484 39.9951L20.466 39.9947L20.4516 39.995ZM19.4698 39.993L19.4939 39.9937L19.4841 39.9934L19.4698 39.993ZM20.5159 39.9934L20.5061 39.9937L20.5302 39.993L20.5159 39.9934ZM20.5802 39.9917L20.5645 39.9922L20.5891 39.9915L20.5802 39.9917V39.9917ZM19.4109 39.9915L19.4355 39.9922L19.4198 39.9917L19.4109 39.9915V39.9915ZM19.3546 39.9898L19.3722 39.9903L19.3556 39.9898L19.3405 39.9893L19.3546 39.9898V39.9898ZM20.6444 39.9898L20.6278 39.9903L20.6454 39.9898L20.6595 39.9893L20.6444 39.9898ZM20.7085 39.9877L20.6998 39.988L20.7267 39.987L20.7085 39.9877ZM19.2733 39.987L19.3002 39.988L19.2915 39.9877L19.2733 39.987ZM19.2148 39.9848L19.243 39.9859L19.2273 39.9853L19.2148 39.9848ZM20.7727 39.9853L20.757 39.9859L20.7852 39.9848L20.7727 39.9853ZM19.1573 39.9825L19.185 39.9837L19.1634 39.9828L19.1573 39.9825V39.9825ZM20.8366 39.9828L20.815 39.9837L20.8427 39.9825L20.8366 39.9828V39.9828ZM19.0769 39.979L19.1066 39.9803L19.0993 39.9801L19.0769 39.979ZM20.9007 39.9801L20.8934 39.9803L20.9231 39.979L20.9007 39.9801ZM19.0191 39.9763L19.0499 39.9777L19.0354 39.9771L19.0191 39.9763ZM20.9646 39.9771L20.9501 39.9777L20.9809 39.9763L20.9646 39.9771ZM18.9623 39.9734L18.9933 39.975L18.9715 39.974L18.9623 39.9734ZM21.0285 39.974L21.0067 39.975L21.0377 39.9734L21.0285 39.974ZM21.0924 39.9706L21.0641 39.9721L21.0892 39.9708L21.1188 39.9691L21.0924 39.9706ZM18.9108 39.9708L18.9359 39.9721L18.9076 39.9706L18.8812 39.9691L18.9108 39.9708ZM21.1562 39.967L21.1437 39.9677L21.1754 39.9659L21.1562 39.967ZM18.8246 39.9659L18.8563 39.9677L18.8438 39.967L18.8246 39.9659ZM18.7682 39.9626L18.7998 39.9645L18.7801 39.9634L18.7682 39.9626V39.9626ZM21.2199 39.9634L21.2002 39.9645L21.2318 39.9626L21.2199 39.9634ZM18.7144 39.9592L18.7429 39.961L18.7163 39.9594L18.6896 39.9577L18.7144 39.9592ZM21.2837 39.9594L21.2571 39.961L21.2856 39.9592L21.3104 39.9577L21.2837 39.9594V39.9594ZM21.3473 39.9552L21.3377 39.9559L21.368 39.9538L21.3473 39.9552V39.9552ZM18.632 39.9538L18.6623 39.9559L18.6527 39.9552L18.632 39.9538V39.9538ZM18.5757 39.9499L18.6054 39.952L18.5891 39.9509L18.5757 39.9499ZM21.4109 39.9509L21.3946 39.952L21.4243 39.9499L21.4109 39.9509V39.9509ZM18.5195 39.9459L18.5468 39.9479L18.5256 39.9464L18.5195 39.9459ZM21.4744 39.9464L21.4532 39.9479L21.4805 39.9459L21.4744 39.9464ZM18.444 39.9402L18.4679 39.942L18.4621 39.9416L18.444 39.9402V39.9402ZM21.5379 39.9416L21.5321 39.942L21.556 39.9402L21.5379 39.9416V39.9416ZM21.6013 39.9367L21.5898 39.9376L21.6141 39.9356L21.6013 39.9367V39.9367ZM18.3859 39.9356L18.4102 39.9376L18.3987 39.9367L18.3859 39.9356V39.9356ZM18.3292 39.931L18.3498 39.9327L18.3353 39.9316L18.3292 39.931ZM21.6647 39.9316L21.6502 39.9327L21.6708 39.931L21.6647 39.9316V39.9316ZM18.2669 39.9258L18.273 39.9263L18.272 39.9262L18.2669 39.9258V39.9258ZM21.728 39.9262L21.727 39.9263L21.7331 39.9258L21.728 39.9262V39.9262ZM21.7913 39.9207L21.7856 39.9212L21.7998 39.9199L21.7913 39.9207V39.9207ZM18.2002 39.9199L18.2144 39.9212L18.2088 39.9207L18.2002 39.9199V39.9199ZM18.1416 39.9146L18.1522 39.9156L18.1456 39.915L18.1416 39.9146ZM21.8544 39.915L21.8478 39.9156L21.8584 39.9146L21.8544 39.915ZM16.875 39.7568C7.31883 38.2548 0 29.9753 0 20C0 8.96172 8.96172 0 20 0C31.0383 0 40 8.96172 40 20C40 29.9753 32.6812 38.2548 23.125 39.7568V25.7812H27.7852L28.6719 20H23.125V16.2484C23.125 14.6667 23.8998 13.125 26.3843 13.125H28.9062V8.20312C28.9062 8.20312 26.6175 7.8125 24.4293 7.8125C19.8609 7.8125 16.875 10.5813 16.875 15.5938V20H11.7969V25.7812H16.875V39.7568Z" fill="white"/>
</svg>
