<svg width="30" height="30" viewBox="0 0 40 40" fill="none" xmlns="http://www.w3.org/2000/svg">
<path fill-rule="evenodd" clip-rule="evenodd" d="M20 0C31.0383 0 40 8.96172 40 20C40 31.0383 31.0383 40 20 40C8.96172 40 0 31.0383 0 20C0 8.96172 8.96172 0 20 0ZM20 7.5C16.6052 7.5 16.1795 7.51437 14.8462 7.57523C13.5158 7.63594 12.6071 7.84727 11.812 8.15625C10.99 8.4757 10.2929 8.90313 9.59797 9.59805C8.90305 10.293 8.47563 10.9901 8.15617 11.812C7.84719 12.6071 7.63594 13.5158 7.57516 14.8462C7.51437 16.1795 7.5 16.6052 7.5 20C7.5 23.3948 7.51437 23.8205 7.57516 25.1537C7.63594 26.4842 7.84719 27.3929 8.15617 28.188C8.47563 29.0099 8.90305 29.707 9.59797 30.402C10.2929 31.097 10.99 31.5244 11.812 31.8438C12.6071 32.1527 13.5158 32.3641 14.8462 32.4248C16.1795 32.4856 16.6052 32.5 20 32.5C23.3948 32.5 23.8205 32.4856 25.1537 32.4248C26.4842 32.3641 27.3929 32.1527 28.188 31.8438C29.0099 31.5244 29.707 31.097 30.402 30.402C31.097 29.707 31.5244 29.0099 31.8438 28.188C32.1527 27.3929 32.3641 26.4842 32.4248 25.1537C32.4856 23.8205 32.5 23.3948 32.5 20C32.5 16.6052 32.4856 16.1795 32.4248 14.8462C32.3641 13.5158 32.1527 12.6071 31.8438 11.812C31.5244 10.9901 31.097 10.293 30.402 9.59805C29.707 8.90313 29.0099 8.4757 28.188 8.15625C27.3929 7.84727 26.4842 7.63594 25.1537 7.57523C23.8205 7.51437 23.3948 7.5 20 7.5ZM20 9.75227C23.3377 9.75227 23.733 9.765 25.0511 9.82516C26.2698 9.88078 26.9316 10.0844 27.3721 10.2555C27.9556 10.4823 28.372 10.7532 28.8094 11.1906C29.2469 11.628 29.5177 12.0445 29.7445 12.6279C29.9156 13.0684 30.1193 13.7302 30.1748 14.9489C30.235 16.267 30.2477 16.6623 30.2477 20C30.2477 23.3377 30.235 23.733 30.1748 25.0511C30.1193 26.2698 29.9156 26.9316 29.7445 27.3721C29.5177 27.9556 29.2469 28.372 28.8094 28.8094C28.372 29.2469 27.9556 29.5177 27.3721 29.7445C26.9316 29.9156 26.2698 30.1193 25.0511 30.1748C23.7332 30.235 23.3379 30.2477 20 30.2477C16.6621 30.2477 16.2669 30.235 14.9489 30.1748C13.7302 30.1193 13.0684 29.9156 12.6279 29.7445C12.0444 29.5177 11.628 29.2469 11.1905 28.8094C10.7531 28.372 10.4823 27.9556 10.2555 27.3721C10.0844 26.9316 9.8807 26.2698 9.82508 25.0511C9.76492 23.733 9.75227 23.3377 9.75227 20C9.75227 16.6623 9.76492 16.267 9.82508 14.9489C9.8807 13.7302 10.0844 13.0684 10.2555 12.6279C10.4823 12.0445 10.7531 11.628 11.1905 11.1906C11.628 10.7532 12.0444 10.4823 12.6279 10.2555C13.0684 10.0844 13.7302 9.88078 14.9489 9.82516C16.267 9.765 16.6623 9.75227 20 9.75227ZM20 13.5811C16.4549 13.5811 13.5811 16.4549 13.5811 20C13.5811 23.5451 16.4549 26.4189 20 26.4189C23.5451 26.4189 26.4189 23.5451 26.4189 20C26.4189 16.4549 23.5451 13.5811 20 13.5811V13.5811ZM20 24.1666C17.6988 24.1666 15.8334 22.3012 15.8334 20C15.8334 17.6988 17.6988 15.8334 20 15.8334C22.3012 15.8334 24.1666 17.6988 24.1666 20C24.1666 22.3012 22.3012 24.1666 20 24.1666V24.1666ZM28.1726 13.3275C28.1726 14.1559 27.5009 14.8274 26.6725 14.8274C25.8441 14.8274 25.1726 14.1559 25.1726 13.3275C25.1726 12.4991 25.8441 11.8275 26.6725 11.8275C27.5009 11.8275 28.1726 12.4991 28.1726 13.3275Z" fill="white"/>
</svg>
