<svg width="30" height="30" viewBox="0 0 40 40" fill="none" xmlns="http://www.w3.org/2000/svg">
<path fill-rule="evenodd" clip-rule="evenodd" d="M20 0C31.0383 0 40 8.96172 40 20C40 31.0383 31.0383 40 20 40C8.96172 40 0 31.0383 0 20C0 8.96172 8.96172 0 20 0ZM13.7471 31.2399V15.6211H8.55461V31.2399H13.7471ZM32.4674 31.2399V22.2832C32.4674 17.4856 29.9059 15.2538 26.4902 15.2538C23.7359 15.2538 22.5021 16.7686 21.8113 17.8325V15.6211H16.6202C16.689 17.0865 16.6202 31.2399 16.6202 31.2399H21.8112V22.5173C21.8112 22.0504 21.8448 21.5837 21.9824 21.25C22.357 20.3176 23.2119 19.3516 24.6461 19.3516C26.5238 19.3516 27.276 20.7845 27.276 22.8832V31.2399H32.4674V31.2399ZM11.1859 8.08984C9.40937 8.08984 8.24867 9.25781 8.24867 10.7887C8.24867 12.2873 9.37406 13.4874 11.1172 13.4874H11.1507C12.9613 13.4874 14.0882 12.2873 14.0882 10.7887C14.0546 9.25781 12.9613 8.08984 11.1859 8.08984V8.08984Z" fill="white"/>
</svg>
