<svg width="32" height="38" viewBox="0 0 32 38" fill="none" xmlns="http://www.w3.org/2000/svg">
<path d="M27.3304 4.70766C24.328 1.6934 20.2559 -3.17604e-08 16.0098 0C11.7637 3.17604e-08 7.69158 1.6934 4.68916 4.70766C1.68674 7.72192 3.16356e-08 11.8101 0 16.0729C-3.16356e-08 20.3358 1.68674 24.424 4.68916 27.4382L14.6325 37.4397C14.8079 37.6172 15.0165 37.7582 15.2465 37.8543C15.4764 37.9505 15.723 38 15.9721 38C16.2211 38 16.4678 37.9505 16.6977 37.8543C16.9276 37.7582 17.1363 37.6172 17.3117 37.4397L27.3304 27.3435C30.3203 24.3418 32 20.2706 32 16.0256C32 11.7806 30.3203 7.70938 27.3304 4.70766ZM24.6323 24.6348L16.0098 33.3292L7.38725 24.6348C5.68376 22.923 4.52402 20.7427 4.05463 18.3693C3.58524 15.9959 3.82726 13.5361 4.75011 11.3008C5.67296 9.06552 7.2352 7.15508 9.23936 5.81099C11.2435 4.46691 13.5996 3.74953 16.0098 3.74953C18.42 3.74953 20.7761 4.46691 22.7802 5.81099C24.7844 7.15508 26.3466 9.06552 27.2695 11.3008C28.1923 13.5361 28.4344 15.9959 27.965 18.3693C27.4956 20.7427 26.3358 22.923 24.6323 24.6348ZM10.3495 10.2577C8.82632 11.7916 7.971 13.8692 7.971 16.0351C7.971 18.201 8.82632 20.2785 10.3495 21.8124C11.4811 22.9504 12.9223 23.7276 14.4922 24.0465C16.0621 24.3653 17.6908 24.2116 19.1741 23.6046C20.6573 22.9977 21.9289 21.9645 22.8295 20.6347C23.7301 19.3049 24.2194 17.7377 24.2361 16.1298C24.2446 15.0561 24.0386 13.9917 23.6303 12.9994C23.222 12.007 22.6196 11.107 21.8588 10.3524C21.111 9.58446 20.2193 8.97255 19.2351 8.5519C18.2508 8.13125 17.1934 7.91016 16.1238 7.90136C15.0541 7.89256 13.9932 8.09621 13.0022 8.50061C12.0112 8.90501 11.1097 9.50216 10.3495 10.2577ZM19.1984 19.1226C18.4834 19.8514 17.5385 20.3082 16.5251 20.415C15.5118 20.5217 14.493 20.2717 13.6429 19.7078C12.7928 19.1439 12.1642 18.301 11.8646 17.3233C11.565 16.3456 11.613 15.2937 12.0003 14.3476C12.3877 13.4015 13.0904 12.6198 13.9883 12.1363C14.8862 11.6527 15.9235 11.4973 16.9229 11.6966C17.9223 11.8959 18.8217 12.4375 19.4673 13.2288C20.113 14.0202 20.4648 15.0121 20.4626 16.0351C20.4351 17.2043 19.9465 18.3148 19.1041 19.1226H19.1984Z" fill="#0F9D58"/>
</svg>
