<svg width="198" height="68" viewBox="0 0 198 68" fill="none" xmlns="http://www.w3.org/2000/svg">
<path fill-rule="evenodd" clip-rule="evenodd" d="M44.2813 13.73L15.8637 42.1476C10.0371 34.1931 10.7181 22.9614 17.9065 15.7729C25.095 8.58442 36.3267 7.90345 44.2813 13.73Z" fill="#FBBC05"/>
<path fill-rule="evenodd" clip-rule="evenodd" d="M46.4319 12.166C46.2536 12.0355 46.0737 11.9081 45.8922 11.7841C37.9759 6.37328 27.0845 7.18157 20.0572 14.2089C13.0298 21.2363 12.2215 32.1277 17.6323 40.0439C17.7564 40.2254 17.8837 40.4054 18.0143 40.5836L46.4319 12.166ZM18.1015 39.5748L45.423 12.2533C37.7695 7.09208 27.2898 7.898 20.518 14.6698C13.7463 21.4415 12.9403 31.9213 18.1015 39.5748Z" fill="black"/>
<path fill-rule="evenodd" clip-rule="evenodd" d="M9.95409 52.7265L38.3717 24.3089C44.1982 32.2634 43.5173 43.4952 36.3288 50.6836C29.1403 57.8721 17.9086 58.5531 9.95409 52.7265Z" fill="#FF0000"/>
<path d="M95 13H106V52H95V13Z" fill="#FBBC05"/>
<path d="M116 41L116 52L95 52L95 41L116 41Z" fill="#4285F4"/>
<path d="M122 46.5C122 49.5376 119.314 52 116 52C112.686 52 110 49.5376 110 46.5C110 43.4624 112.686 41 116 41C119.314 41 122 43.4624 122 46.5Z" fill="#0F9D58"/>
<path fill-rule="evenodd" clip-rule="evenodd" d="M107.293 39.8754V12.6393H96.649V50.3607H117.029C119.968 50.3607 122.351 48.0135 122.351 45.1181C122.351 42.2226 119.968 39.8754 117.029 39.8754H107.293ZM96 51V12H107.942V39.2361H117.029C120.327 39.2361 123 41.8695 123 45.1181C123 48.3666 120.327 51 117.029 51H96Z" fill="black"/>
<path d="M82 32.5C82 40.5081 75.732 47 68 47C60.268 47 54 40.5081 54 32.5C54 24.4919 60.268 18 68 18C75.732 18 82 24.4919 82 32.5Z" fill="#4285F4"/>
<path fill-rule="evenodd" clip-rule="evenodd" d="M69.5 45.3409C77.1441 45.3409 83.3409 39.1441 83.3409 31.5C83.3409 23.8559 77.1441 17.6591 69.5 17.6591C61.8559 17.6591 55.6591 23.8559 55.6591 31.5C55.6591 39.1441 61.8559 45.3409 69.5 45.3409ZM69.5 46C77.5081 46 84 39.5081 84 31.5C84 23.4919 77.5081 17 69.5 17C61.4919 17 55 23.4919 55 31.5C55 39.5081 61.4919 46 69.5 46Z" fill="black"/>
<path d="M138 47L122 20L154 20L138 47Z" fill="#FBBC05"/>
<path fill-rule="evenodd" clip-rule="evenodd" d="M140 46L156 18L124 18L140 46ZM140 44.6667L154.857 18.6666L125.143 18.6666L140 44.6667Z" fill="black"/>
<path fill-rule="evenodd" clip-rule="evenodd" d="M191 32.5C191 24.4919 184.508 18 176.5 18C168.492 18 162 24.4919 162 32.5C162 40.5081 168.492 47 176.5 47V32.5H191Z" fill="#0F9D58"/>
<path fill-rule="evenodd" clip-rule="evenodd" d="M176.414 41V32.697H191C191 24.58 184.47 18 176.414 18C176.276 18 176.138 18.0019 176 18.0058L176.414 41Z" fill="#FBBC05"/>
<path fill-rule="evenodd" clip-rule="evenodd" d="M177.508 31.5H192C192 31.2791 191.995 31.0594 191.986 30.8409C191.641 23.1387 185.291 17 177.508 17H177.492C169.489 17 163 23.4919 163 31.5C163 39.2873 169.136 45.6407 176.834 45.9853C177.052 45.9951 177.272 46 177.492 46V38.8204L177.508 39.6918V31.5ZM176.849 38.8203V30.8409H191.326C190.982 23.5028 184.927 17.6591 177.508 17.6591H177.492C169.852 17.6591 163.659 23.8559 163.659 31.5C163.659 38.9232 169.5 44.9815 176.834 45.3255V38.8204L176.849 38.8203Z" fill="black"/>
<path fill-rule="evenodd" clip-rule="evenodd" d="M11.5182 50.8789C11.6994 51.0055 11.8821 51.1287 12.0663 51.2487C20.1017 56.4809 30.9723 55.4291 37.8406 48.2462C44.7089 41.0633 45.2732 30.1565 39.6865 22.3634C39.5585 22.1847 39.4271 22.0077 39.2926 21.8324L11.5182 50.8789ZM39.228 22.8429L12.5249 50.7691C20.292 55.7577 30.7511 54.7174 37.3696 47.7958C43.988 40.8741 44.5592 30.379 39.228 22.8429Z" fill="black"/>
<path fill-rule="evenodd" clip-rule="evenodd" d="M52.4599 14.1244L50.7818 15.8024L52.0022 17.0228L50.7988 18.2263L52.4768 19.9043L53.6803 18.7009L54.8837 19.9043L56.5618 18.2263L55.3583 17.0228L56.5787 15.8024L54.9007 14.1244L53.6803 15.3448L52.4599 14.1244Z" fill="#4285F4"/>
<path fill-rule="evenodd" clip-rule="evenodd" d="M84.3285 44.2987L82.6505 45.9767L83.8709 47.1971L82.6674 48.4006L84.3455 50.0786L85.5489 48.8752L86.7524 50.0786L88.4304 48.4006L87.227 47.1971L88.4474 45.9767L86.7693 44.2987L85.5489 45.5191L84.3285 44.2987Z" fill="#FBBC05"/>
<path fill-rule="evenodd" clip-rule="evenodd" d="M186.321 39.7367L184.643 41.4147L185.864 42.6351L184.66 43.8386L186.338 45.5166L187.542 44.3132L188.745 45.5166L190.423 43.8386L189.22 42.6351L190.44 41.4147L188.762 39.7367L187.542 40.9571L186.321 39.7367Z" fill="#0F9D58"/>
<path fill-rule="evenodd" clip-rule="evenodd" d="M166.053 10.0836L164.375 11.7616L165.596 12.982L164.392 14.1855L166.07 15.8635L167.274 14.6601L168.477 15.8635L170.155 14.1855L168.952 12.982L170.172 11.7616L168.494 10.0836L167.274 11.304L166.053 10.0836Z" fill="#FF0000"/>
<path d="M38.4213 53.0905L47.1445 54.2852L41.7482 61.2424L38.4213 53.0905Z" fill="#FBBC05"/>
<path d="M80.414 8.80679L84.8204 9.41028L82.0945 12.9246L80.414 8.80679Z" fill="#0F9D58"/>
<path d="M124.773 50.7446L133.496 51.9393L128.1 58.8964L124.773 50.7446Z" fill="#4285F4"/>
<path d="M178.806 5.26898L184.81 6.09123L181.096 10.8794L178.806 5.26898Z" fill="black"/>
<path d="M69 56C69 57.1046 67.8807 58 66.5 58C65.1193 58 64 57.1046 64 56C64 54.8954 65.1193 54 66.5 54C67.8807 54 69 54.8954 69 56Z" fill="black"/>
<path d="M121 14C121 16.2091 119.209 18 117 18C114.791 18 113 16.2091 113 14C113 11.7909 114.791 10 117 10C119.209 10 121 11.7909 121 14Z" fill="#FF0000"/>
<path fill-rule="evenodd" clip-rule="evenodd" d="M157.5 52.3173C158.504 52.3173 159.317 51.5037 159.317 50.5C159.317 49.4963 158.504 48.6827 157.5 48.6827C156.496 48.6827 155.683 49.4963 155.683 50.5C155.683 51.5037 156.496 52.3173 157.5 52.3173ZM157.5 54C159.433 54 161 52.433 161 50.5C161 48.567 159.433 47 157.5 47C155.567 47 154 48.567 154 50.5C154 52.433 155.567 54 157.5 54Z" fill="black"/>
<path fill-rule="evenodd" clip-rule="evenodd" d="M3.5 45.3173C4.50367 45.3173 5.31731 44.5037 5.31731 43.5C5.31731 42.4963 4.50367 41.6827 3.5 41.6827C2.49633 41.6827 1.68269 42.4963 1.68269 43.5C1.68269 44.5037 2.49633 45.3173 3.5 45.3173ZM3.5 47C5.433 47 7.00001 45.433 7.00001 43.5C7.00001 41.567 5.433 40 3.5 40C1.567 40 0 41.567 0 43.5C0 45.433 1.567 47 3.5 47Z" fill="black"/>
<path d="M167.25 64.4163L167.084 65.2117H167.994V66.9031H166.72L166.505 67.9414H164.799L165.015 66.9031H163.864L163.649 67.9414H161.952L162.167 66.9031H161V65.2117H162.532L162.697 64.4163H161.563V62.7249H163.053L163.26 61.7452H164.957L164.75 62.7249H165.9L166.107 61.7452H167.812L167.605 62.7249H168.557V64.4163H167.25ZM165.544 64.4163H164.394L164.228 65.2117H165.379L165.544 64.4163Z" fill="#333333"/>
<path d="M171.128 68C170.687 68 170.295 67.9274 169.953 67.7823C169.616 67.6372 169.349 67.4362 169.15 67.1794C168.951 66.9227 168.838 66.6324 168.811 66.3086H170.574C170.596 66.4482 170.654 66.5514 170.748 66.6184C170.847 66.6854 170.971 66.7189 171.12 66.7189C171.214 66.7189 171.288 66.6994 171.344 66.6603C171.399 66.6156 171.426 66.5626 171.426 66.5012C171.426 66.3951 171.368 66.3198 171.253 66.2751C171.137 66.2305 170.941 66.1802 170.665 66.1244C170.328 66.0574 170.05 65.9849 169.829 65.9067C169.614 65.8286 169.423 65.6946 169.258 65.5048C169.098 65.315 169.018 65.0526 169.018 64.7177C169.018 64.4274 169.092 64.1651 169.241 63.9306C169.396 63.6906 169.622 63.5036 169.92 63.3696C170.218 63.2301 170.579 63.1603 171.004 63.1603C171.633 63.1603 172.124 63.3166 172.478 63.6292C172.836 63.9418 173.051 64.3493 173.123 64.8517H171.493C171.465 64.7233 171.407 64.6256 171.319 64.5586C171.23 64.486 171.112 64.4498 170.963 64.4498C170.869 64.4498 170.797 64.4693 170.748 64.5084C170.698 64.5419 170.673 64.5949 170.673 64.6675C170.673 64.7624 170.731 64.8349 170.847 64.8852C170.963 64.9298 171.148 64.9773 171.402 65.0275C171.738 65.0945 172.022 65.1699 172.254 65.2536C172.486 65.3373 172.687 65.4825 172.858 65.689C173.029 65.89 173.115 66.1691 173.115 66.5263C173.115 66.8054 173.035 67.0566 172.875 67.2799C172.715 67.5032 172.483 67.679 172.18 67.8074C171.882 67.9358 171.531 68 171.128 68Z" fill="#333333"/>
<path d="M176.062 68C175.593 68 175.171 67.9023 174.796 67.7069C174.421 67.5116 174.126 67.2325 173.91 66.8696C173.701 66.5012 173.596 66.0714 173.596 65.5801C173.596 65.0889 173.701 64.6619 173.91 64.299C174.126 63.9306 174.421 63.6487 174.796 63.4534C175.171 63.258 175.593 63.1603 176.062 63.1603C176.532 63.1603 176.954 63.258 177.329 63.4534C177.704 63.6487 177.997 63.9306 178.206 64.299C178.421 64.6619 178.529 65.0889 178.529 65.5801C178.529 66.0714 178.421 66.5012 178.206 66.8696C177.997 67.2325 177.704 67.5116 177.329 67.7069C176.954 67.9023 176.532 68 176.062 68ZM176.062 66.3923C176.234 66.3923 176.377 66.3254 176.493 66.1914C176.609 66.0518 176.667 65.8481 176.667 65.5801C176.667 65.3122 176.609 65.1112 176.493 64.9773C176.377 64.8377 176.234 64.7679 176.062 64.7679C175.891 64.7679 175.748 64.8377 175.632 64.9773C175.516 65.1112 175.458 65.3122 175.458 65.5801C175.458 65.8481 175.513 66.0518 175.624 66.1914C175.74 66.3254 175.886 66.3923 176.062 66.3923Z" fill="#333333"/>
<path d="M180.944 61.7452V67.9414H179.106V61.7452H180.944Z" fill="#333333"/>
<path d="M184.141 66.1746L184.886 63.2189H186.839L185.283 67.9414H182.991L181.434 63.2189H183.388L184.141 66.1746Z" fill="#333333"/>
<path d="M191.846 65.5383C191.846 65.6667 191.838 65.7895 191.822 65.9067H188.867C188.894 66.3142 189.062 66.5179 189.371 66.5179C189.57 66.5179 189.714 66.4258 189.802 66.2416H191.747C191.681 66.5766 191.54 66.878 191.325 67.1459C191.115 67.4083 190.848 67.6176 190.522 67.7739C190.202 67.9246 189.849 68 189.463 68C188.999 68 188.585 67.9023 188.221 67.7069C187.862 67.5116 187.581 67.2325 187.377 66.8696C187.178 66.5012 187.079 66.0714 187.079 65.5801C187.079 65.0889 187.178 64.6619 187.377 64.299C187.581 63.9306 187.862 63.6487 188.221 63.4534C188.585 63.258 188.999 63.1603 189.463 63.1603C189.926 63.1603 190.337 63.258 190.696 63.4534C191.06 63.6431 191.341 63.9167 191.54 64.2739C191.744 64.6312 191.846 65.0526 191.846 65.5383ZM189.984 65.0945C189.984 64.9382 189.934 64.821 189.835 64.7428C189.736 64.6591 189.612 64.6172 189.463 64.6172C189.137 64.6172 188.947 64.7763 188.891 65.0945H189.984Z" fill="#333333"/>
<path d="M193.355 62.8421C193.035 62.8421 192.778 62.7556 192.585 62.5825C192.392 62.4095 192.295 62.1918 192.295 61.9294C192.295 61.6615 192.392 61.441 192.585 61.2679C192.778 61.0893 193.035 61 193.355 61C193.669 61 193.923 61.0893 194.116 61.2679C194.309 61.441 194.406 61.6615 194.406 61.9294C194.406 62.1918 194.309 62.4095 194.116 62.5825C193.923 62.7556 193.669 62.8421 193.355 62.8421ZM194.265 63.2189V67.9414H192.428V63.2189H194.265Z" fill="#333333"/>
<path d="M198 66.3589V67.9414H197.305C196.025 67.9414 195.385 67.2967 195.385 66.0072V64.7679H194.805V63.2189H195.385V62.0801H197.222V63.2189H197.984V64.7679H197.222V66.0407C197.222 66.1523 197.247 66.2333 197.297 66.2835C197.352 66.3337 197.44 66.3589 197.562 66.3589H198Z" fill="#333333"/>
</svg>
